<svg width="960" height="420" viewBox="0 0 960 420" fill="none" xmlns="http://www.w3.org/2000/svg">
  <defs>
    <linearGradient id="bg" x1="0" y1="0" x2="1" y2="1">
      <stop offset="0%" stop-color="#0b1220" />
      <stop offset="100%" stop-color="#111827" />
    </linearGradient>
    <filter id="shadow" x="0" y="0" width="200%" height="200%" color-interpolation-filters="sRGB">
      <feDropShadow dx="0" dy="10" stdDeviation="16" flood-color="#020617" flood-opacity="0.45" />
    </filter>
  </defs>
  <rect x="16" y="16" width="928" height="388" rx="24" fill="url(#bg)" />

  <text x="56" y="70" font-family="Manrope, Segoe UI, Arial, sans-serif" font-size="22" font-weight="700" fill="#e2e8f0">Configuracoes de Chamados</text>
  <text x="56" y="94" font-family="Manrope, Segoe UI, Arial, sans-serif" font-size="13" fill="#94a3b8">Veja como os calculos impactam a cobranca do cliente</text>

  <g filter="url(#shadow)">
    <rect x="48" y="110" width="420" height="90" rx="16" fill="#0f172a" stroke="#1f2937" />
    <circle cx="82" cy="155" r="16" fill="#38bdf8" />
    <path d="M76 156l4 4 8-9" stroke="#0f172a" stroke-width="2.5" stroke-linecap="round" stroke-linejoin="round" />
    <text x="112" y="145" font-family="Manrope, Segoe UI, Arial, sans-serif" font-size="14" font-weight="600" fill="#e2e8f0">1. Ativar calculos e faturamento</text>
    <text x="112" y="166" font-family="Manrope, Segoe UI, Arial, sans-serif" font-size="12" fill="#94a3b8">Libera cronometro, KM e valores</text>
    <rect x="360" y="138" width="64" height="26" rx="13" fill="#0b4a6e" />
    <circle cx="398" cy="151" r="10" fill="#38bdf8" />
  </g>

  <g filter="url(#shadow)">
    <rect x="48" y="214" width="420" height="90" rx="16" fill="#0f172a" stroke="#1f2937" />
    <rect x="66" y="238" width="36" height="24" rx="12" fill="#0b4a6e" />
    <circle cx="88" cy="250" r="9" fill="#38bdf8" />
    <text x="112" y="249" font-family="Manrope, Segoe UI, Arial, sans-serif" font-size="14" font-weight="600" fill="#e2e8f0">2. Decidir por chamado</text>
    <text x="112" y="270" font-family="Manrope, Segoe UI, Arial, sans-serif" font-size="12" fill="#94a3b8">Ative ou desative calculos em cada chamado</text>
  </g>

  <g filter="url(#shadow)">
    <rect x="48" y="318" width="420" height="90" rx="16" fill="#0f172a" stroke="#1f2937" />
    <rect x="66" y="346" width="32" height="24" rx="12" fill="#1e293b" stroke="#334155" />
    <text x="75" y="362" font-family="Manrope, Segoe UI, Arial, sans-serif" font-size="11" font-weight="600" fill="#e2e8f0">PF</text>
    <rect x="106" y="346" width="32" height="24" rx="12" fill="#0b4a6e" stroke="#38bdf8" />
    <text x="115" y="362" font-family="Manrope, Segoe UI, Arial, sans-serif" font-size="11" font-weight="600" fill="#e2e8f0">PJ</text>
    <rect x="146" y="346" width="74" height="24" rx="12" fill="#1e293b" stroke="#334155" />
    <text x="154" y="362" font-family="Manrope, Segoe UI, Arial, sans-serif" font-size="11" font-weight="600" fill="#e2e8f0">PARCEIRA</text>
    <text x="112" y="353" font-family="Manrope, Segoe UI, Arial, sans-serif" font-size="14" font-weight="600" fill="#e2e8f0">3. Tipos de cliente</text>
    <text x="112" y="374" font-family="Manrope, Segoe UI, Arial, sans-serif" font-size="12" fill="#94a3b8">Defina quem recebe a cobranca automatica</text>
  </g>

  <path d="M470 198c64 0 64 0 96 32" stroke="#475569" stroke-width="2" stroke-linecap="round" stroke-dasharray="5 6" />
  <path d="M560 228l6 8-10 1" fill="#475569" />

  <g filter="url(#shadow)">
    <rect x="520" y="170" width="388" height="170" rx="18" fill="#111827" stroke="#1f2937" />
    <rect x="540" y="190" width="92" height="24" rx="12" fill="#38bdf8" />
    <text x="552" y="206" font-family="Manrope, Segoe UI, Arial, sans-serif" font-size="12" font-weight="600" fill="#0f172a">Resultado</text>
    <text x="540" y="242" font-family="Manrope, Segoe UI, Arial, sans-serif" font-size="20" font-weight="700" fill="#e2e8f0">Recibos com valor final</text>
    <text x="540" y="264" font-family="Manrope, Segoe UI, Arial, sans-serif" font-size="12" fill="#94a3b8">Tempo + KM + descontos aplicados automaticamente</text>

    <circle cx="556" cy="300" r="16" fill="#2563eb" />
    <path d="M556 292v8m0 0h8m-8 0h-8" stroke="#e2e8f0" stroke-width="2" stroke-linecap="round" />
    <text x="580" y="304" font-family="Manrope, Segoe UI, Arial, sans-serif" font-size="12" fill="#e2e8f0">Cronometro ligado</text>

    <circle cx="556" cy="332" r="16" fill="#38bdf8" />
    <path d="M556 326c-4 0-7 3-7 7 0 6 7 11 7 11s7-5 7-11c0-4-3-7-7-7z" fill="#0f172a" />
    <text x="580" y="336" font-family="Manrope, Segoe UI, Arial, sans-serif" font-size="12" fill="#e2e8f0">KM calculado</text>

    <circle cx="750" cy="300" r="16" fill="#22c55e" />
    <text x="744" y="305" font-family="Manrope, Segoe UI, Arial, sans-serif" font-size="14" font-weight="700" fill="#0f172a">R$</text>
    <text x="774" y="304" font-family="Manrope, Segoe UI, Arial, sans-serif" font-size="12" fill="#e2e8f0">Valor final claro</text>
  </g>
</svg>
